<?xml version="1.0" encoding="utf-8"?>


<svg version="1.1" xmlns="http://www.w3.org/2000/svg" xmlns:xlink="http://www.w3.org/1999/xlink"
    x="0px" y="0px" viewBox="0 0 1000 1000" enable-background="new 0 0 1000 1000"
    xml:space="preserve">
<path fill="#0369a1" d="M498.6,176.8C344.7,176.8,220,301.6,220,455.4c0,96.8,49.4,182.1,124.3,232v189h310.6V686.1c73.8-50.1,122.3-134.7,122.3-230.7C777.2,301.6,652.5,176.8,498.6,176.8z M646,605.6c-16.5,16.2-35.6,29.6-56.7,39.7v155.9H409.8V645.4c-21.2-10.1-40.4-23.6-56.9-39.8c-38.7-38-62.7-90.8-62.7-149.3c0-115.6,93.7-209.2,209.2-209.2c115.6,0,209.2,93.7,209.2,209.2C708.7,514.8,684.7,567.7,646,605.6z"/><path fill="#0369a1" d="M360.1,919.6h280.2V990H360.1V919.6z"/><path fill="#0369a1" d="M114.9,696.1l77.5-77.5l49.8,49.8l-77.5,77.5L114.9,696.1L114.9,696.1z"/><path fill="#0369a1" d="M80,360.4h109.6v70.4H80V360.4z"/><path fill="#0369a1" d="M200.3,80.7l77.5,77.5L228,207.9l-77.5-77.5L200.3,80.7L200.3,80.7z"/><path fill="#0369a1" d="M465.6,10h70.4v109.6h-70.4V10L465.6,10z"/><path fill="#0369a1" d="M852.1,129.3l-77.5,77.5l-49.8-49.8l77.5-77.5L852.1,129.3L852.1,129.3z"/><path fill="#0369a1" d="M810.3,359.9H920v70.4H810.3V359.9z"/><path fill="#0369a1" d="M836.3,745.3l-77.5-77.5l49.8-49.8l77.5,77.5L836.3,745.3z"/>
</svg>